<?xml version="1.0" standalone="no"?>
<!DOCTYPE svg PUBLIC "-//W3C//DTD SVG 20010904//EN"
 "http://www.w3.org/TR/2001/REC-SVG-20010904/DTD/svg10.dtd">
<svg version="1.0" xmlns="http://www.w3.org/2000/svg"
 width="300.000000pt" height="300.000000pt" viewBox="0 0 300.000000 300.000000"
 preserveAspectRatio="xMidYMid meet">
<metadata>
Created by potrace 1.14, written by Peter Selinger 2001-2017
</metadata>
<g transform="translate(0.000000,300.000000) scale(0.100000,-0.100000)"
fill="#000000" stroke="none">
<path d="M565 1936 c-137 -31 -238 -106 -294 -218 -47 -92 -32 -156 55 -243
64 -64 155 -116 229 -131 141 -27 255 -22 470 22 139 29 186 42 464 130 418
133 719 189 988 186 113 -1 210 -16 263 -39 19 -9 37 -17 40 -17 3 -1 21 -12
40 -24 23 -15 12 -2 -29 37 -73 70 -120 98 -222 134 -124 43 -161 52 -274 63
-168 17 -366 2 -550 -41 -38 -9 -83 -20 -100 -26 -16 -5 -82 -25 -145 -45 -63
-20 -229 -74 -368 -121 -140 -47 -291 -94 -335 -105 -111 -25 -301 -35 -364
-18 -116 31 -169 117 -127 206 21 44 76 77 184 111 79 26 97 28 265 28 247 0
351 -17 428 -69 44 -30 47 -20 10 26 -65 77 -155 130 -270 156 -63 15 -289 13
-358 -2z"/>
<path d="M2369 1586 c-2 -2 -26 -7 -53 -10 -119 -16 -276 -58 -641 -169 -169
-51 -497 -138 -575 -151 -19 -3 -46 -8 -60 -11 -14 -3 -40 -8 -59 -11 -18 -3
-43 -8 -55 -10 -97 -19 -309 -25 -423 -11 -121 15 -242 63 -326 131 -42 34
-87 94 -127 173 -30 58 -30 58 -24 18 11 -69 73 -175 145 -245 110 -110 279
-190 469 -224 86 -15 434 -16 525 -1 111 18 233 37 256 40 86 12 432 106 654
179 309 100 389 123 515 145 182 33 291 13 360 -65 38 -44 39 -22 1 38 -26 41
-78 85 -138 117 -56 29 -221 63 -329 67 -61 2 -113 2 -115 0z"/>
</g>
</svg>
