<svg xmlns="http://www.w3.org/2000/svg" xmlns:xlink="http://www.w3.org/1999/xlink" version="1.1" x="0px" y="0px" viewBox="0 0 295.991 66.73" style="fill: rgb(0, 0, 0);" xml:space="preserve" role="img" aria-label="Swirly Patterns">

	<path style="fill: rgb(225, 182, 80);" d="M295.991,24.776c0,5.615-2.67,10.351-8.01,14.205c-5.342,3.856-11.811,5.78-19.409,5.78   c-7.488,0-13.873-1.705-19.159-5.121c-4.848-3.08-7.269-6.606-7.269-10.569c0-1.762,0.496-3.636,1.489-5.616   c0.436-0.108,1.155-0.167,2.146-0.167c3.412,0,5.781,1.762,7.103,5.287c1.539,4.075,3.357,6.995,5.45,8.753   c2.532,1.98,6.165,2.974,10.902,2.974c5.835,0,11.01-1.487,15.526-4.46c4.513-2.974,6.771-6.662,6.771-11.066   c0-4.516-2.286-8.231-6.855-11.149c-4.569-2.916-10.214-4.377-16.929-4.377c-12.005,0-25.384,6.553-40.139,19.657   C210.98,43.66,195.95,51.039,182.517,51.039c-1.874,0-3.249-0.057-4.128-0.165c-4.736,4.953-10.601,8.836-17.591,11.644   c-6.995,2.81-14.18,4.213-21.556,4.213c-22.464,0-44.213-9.525-65.244-28.574C67.829,32.43,61.61,26.76,55.333,21.142   c-7.268-5.506-14.922-8.258-22.96-8.258c-10.132,0-19.712,3.964-28.74,11.893c-0.442,0.33-0.882,0.495-1.321,0.495   C0.771,25.271,0,24.502,0,22.958c0-0.548,0.221-1.043,0.66-1.485c9.688-8.698,20.259-13.049,31.713-13.049   c19.379,0,38.044,8.259,55.994,24.776c4.625,4.404,9.25,8.864,13.875,13.377c5.616,4.956,10.902,8.646,15.857,11.068   c6.495,3.082,13.543,4.626,21.142,4.626c13.214,0,23.893-4.187,32.043-12.554c-7.379-1.543-13.71-4.186-18.994-7.93   c-4.848,3.744-10.629,5.616-17.345,5.616c-6.937,0-12.993-1.98-18.168-5.946c-5.615-4.184-8.424-9.468-8.424-15.856   c0-7.818,4.073-14.149,12.224-18.995C127.953,2.204,136.707,0,146.839,0c10.462,0,19.656,2.701,27.585,8.093   c8.589,5.838,12.883,13.215,12.883,22.134c0,5.509-1.762,10.959-5.284,16.351c6.494,0,13.377-2.533,20.646-7.596   c0.881-0.66,7.434-6.055,19.656-16.188c14.424-12,29.567-18.003,45.424-18.003c8.036,0,14.754,1.928,20.149,5.781   C293.293,14.427,295.991,19.161,295.991,24.776z M179.38,30.227c0-8.036-3.469-14.479-10.406-19.325   c-6.17-4.295-13.545-6.442-22.135-6.442c-8.479,0-15.525,1.708-21.142,5.121c-6.276,3.854-9.416,9.195-9.416,16.021   c0,5.285,1.761,9.498,5.286,12.635c3.523,3.139,7.982,4.709,13.378,4.709c5.726,0,10.408-1.322,14.041-3.965   c-3.855-3.523-5.781-7.21-5.781-11.068c0-2.863,0.827-5.31,2.478-7.349c1.652-2.038,3.688-3.058,6.111-3.058   c2.421,0,4.516,1.02,6.277,3.058c1.761,2.039,2.643,4.486,2.643,7.349c0,3.965-1.65,7.598-4.956,10.902   c5.505,3.526,11.782,5.836,18.832,6.939C177.781,41.239,179.38,36.066,179.38,30.227z M156.254,27.914   c0-1.539-0.44-2.917-1.32-4.129c-0.883-1.209-1.929-1.816-3.14-1.816c-2.753,0-4.128,1.982-4.128,5.945   c0,2.755,1.595,5.564,4.79,8.424C154.988,33.807,156.254,31,156.254,27.914z"></path>

</svg>