
<svg xmlns="http://www.w3.org/2000/svg" xmlns:xlink="http://www.w3.org/1999/xlink" version="1.1" x="0px" y="0px" viewBox="0 0 300 94.139" style="fill: rgb(0, 0, 0);" xml:space="preserve" role="img" aria-label="Swirly Patterns">

	<path style="fill: rgb(225, 182, 80);" d="M87.107,92.325c-26.108,0-47.718-6.34-64.832-19.026C12.3,65.171,5.773,55.935,2.696,45.592   l-1.109-5.725h0.741c3.322,8.991,8.002,16.318,14.037,21.979c11.328,10.099,27.828,15.147,49.501,15.147h0.926   c24.625,0,63.97-8.619,118.027-25.86c28.816-8.742,49.381-13.115,61.695-13.115c7.877,0,18.59,1.973,32.137,5.912   c9.605,4.433,15.639,9.36,18.102,14.775c1.107,2.587,1.662,4.498,1.662,5.728h-0.555c-0.492-2.094-2.584-4.492-6.279-7.205   c-3.82-3.2-9.541-4.803-17.176-4.803c-13.795,0-35.404,5.237-64.836,15.702C162.16,84.259,121.34,92.325,87.107,92.325z    M71.777,64.433h-0.371c-19.949,0-34.849-7.205-44.699-21.612c-1.107-2.091-2.032-4.739-2.77-7.942   c0-5.786,3.57-12.746,10.713-20.873C43.637,5.879,56.447,1.815,73.07,1.815h3.693c19.58,0,34.171,6.095,43.776,18.287   c1.109,1.971,1.664,3.509,1.664,4.618v0.368c-4.314-7.509-20.812-11.266-49.504-11.266c-13.668,0-25.921,2.833-36.755,8.496   c-4.802,3.45-7.205,7.327-7.205,11.637c0,4.435,2.032,8.312,6.095,11.637c4.435,3.08,10.651,4.619,18.655,4.619   c16.008,0,33.308-3.63,51.904-10.899c47.655-16.375,75.608-24.566,83.86-24.566c9.354-1.353,18.715-2.033,28.072-2.033h2.402   c15.393,0,30.908,3.573,46.547,10.714c4.678,1.848,10.59,6.464,17.732,13.853l0.742,1.293v0.738   c-6.406-7.139-19.459-10.713-39.16-10.713c-29.678,0-66.93,7.943-111.749,23.827C107.363,60.432,86.675,64.433,71.777,64.433z"></path>

</svg>